<svg width="355" height="309" viewBox="0 0 355 309" fill="none" xmlns="http://www.w3.org/2000/svg">
<path d="M33.8346 217.984L30.2758 215.964C29.2918 217.532 28.0952 218.939 26.9331 219.998C25.963 220.882 24.4724 220.861 23.5282 219.949L23.4141 219.838C22.3731 218.835 22.3973 217.151 23.4798 216.191C24.5831 215.213 25.6535 213.99 26.4835 212.522C27.694 210.385 27.6992 208.456 26.1999 207.606C24.7767 206.798 23.1979 207.489 20.6888 209.73C17.0677 212.976 13.6438 214.649 10.0107 212.586C6.7147 210.716 5.44715 206.926 6.93258 202.469L3.37378 200.45L5.4558 196.776L8.75176 198.646C9.58526 197.318 10.4015 196.302 11.1831 195.506C12.1376 194.533 13.6991 194.521 14.6796 195.468C15.693 196.445 15.6982 198.07 14.6848 199.05C13.9257 199.783 13.1026 200.754 12.3521 202.078C10.9721 204.514 11.5739 205.897 12.6236 206.492C13.86 207.193 15.3904 206.328 18.3941 203.822C22.4941 200.254 25.5739 199.624 28.946 201.538C32.28 203.429 33.7879 207.406 32.0949 212.142L35.9166 214.31L33.8346 217.984Z" fill="#AFC1F7"/>
<path d="M205.001 275.143C213.974 263.058 221.182 262.953 221.182 262.953C221.182 262.953 224.453 241.721 221.844 232.69C219.235 223.657 207.434 231.579 207.434 231.579C207.434 231.579 223.079 200.892 216.661 197.444C204.709 191.022 185.881 223.574 185.881 223.574C185.881 223.574 190.29 209.247 181.838 209.3C169.091 209.38 167.988 242.231 167.988 242.231C167.988 242.231 165.476 235.76 157.611 239.466C149.139 243.46 146.845 267.511 146.364 286.097H191.018C197.406 282.181 202.625 278.343 205.001 275.143Z" fill="#7C9AF2"/>
<path d="M187.444 220.956C187.444 220.956 187.968 204.63 179.515 204.684C166.769 204.763 167.988 242.23 167.988 242.23C167.988 242.23 162.664 231.629 154.799 235.338C146.167 239.407 145.143 265.99 145.48 286.097H160.314L216.66 197.444C204.707 191.022 187.442 220.956 187.442 220.956H187.444Z" fill="#4951EC"/>
<path d="M256.853 285.036C256.853 285.036 297.546 289.724 307.402 286.27C317.259 282.816 310.731 277.291 310.731 277.291C310.731 277.291 331.577 274.626 333.588 268.417C335.6 262.209 325.736 262.169 325.736 262.169C325.736 262.169 346.66 250.617 344.311 246.137C339.936 237.793 316.457 249.177 316.457 249.177C316.457 249.177 324.562 242.657 319.682 239.397C312.322 234.481 298.917 252.939 298.917 252.939C298.917 252.939 299.989 248.239 294.025 247.31C283.326 245.642 256.851 285.036 256.851 285.036H256.853Z" fill="#7C9AF2"/>
<path d="M294.014 243.842C299.977 244.772 298.917 252.939 298.917 252.939C298.917 252.939 312.78 230.923 320.14 235.839C325.02 239.099 318.371 248.281 318.371 248.281C318.371 248.281 339.935 237.793 344.31 246.137L260.747 282.425C263.815 277.81 284.019 242.285 294.013 243.842H294.014Z" fill="#4951EC"/>
<path d="M256.6 285.628C256.6 285.628 293.629 259.847 298.957 248.513C304.283 237.179 294.082 238.123 294.082 238.123C294.082 238.123 309.313 218.053 305.699 211.117C302.083 204.182 293.765 212.586 293.765 212.586C293.765 212.586 301.469 184.983 295.669 183.23C284.865 179.965 274.296 214.921 274.296 214.921C274.296 214.921 270.26 195.582 263.377 197.018C252.997 199.185 263.355 227.776 263.355 227.776C263.355 227.776 260.292 218.463 254.491 222.782C244.081 230.534 256.602 285.624 256.602 285.624L256.6 285.628Z" fill="#7C9AF2"/>
<path d="M244.361 223.232C250.899 220.138 252.211 213.626 252.211 213.626C252.211 213.626 252.256 197.459 262.637 195.293C269.521 193.857 274.341 206.843 274.341 206.843C274.341 206.843 284.867 179.967 295.669 183.232L256.488 285.195C255.122 278.694 236.574 226.917 244.361 223.23V223.232Z" fill="#4951EC"/>
<path d="M245.184 285.707H170.515C168.133 285.707 166.204 283.776 166.204 281.393C166.204 279.011 168.133 277.08 170.515 277.08H245.184C247.565 277.08 249.495 279.011 249.495 281.393C249.495 283.776 247.565 285.707 245.184 285.707Z" fill="#92B5F9"/>
<path d="M258.243 277.336H183.574C181.193 277.336 179.263 275.405 179.263 273.022C179.263 270.639 181.193 268.708 183.574 268.708H258.243C260.624 268.708 262.554 270.639 262.554 273.022C262.554 275.405 260.624 277.336 258.243 277.336Z" fill="#4951EC"/>
<path d="M247.795 269.404H173.126C170.745 269.404 168.815 267.473 168.815 265.09C168.815 262.707 170.745 260.776 173.126 260.776H247.795C250.176 260.776 252.106 262.707 252.106 265.09C252.106 267.473 250.176 269.404 247.795 269.404Z" fill="#92B5F9"/>
<path d="M239.088 260.812H164.419C162.038 260.812 160.108 258.881 160.108 256.498C160.108 254.116 162.038 252.185 164.419 252.185H239.088C241.469 252.185 243.399 254.116 243.399 256.498C243.399 258.881 241.469 260.812 239.088 260.812Z" fill="#4951EC"/>
<path d="M281.047 277.274C295.626 262.685 295.626 239.032 281.047 224.443C266.467 209.854 242.829 209.854 228.25 224.443C213.671 239.032 213.671 262.685 228.25 277.274C242.829 291.863 266.467 291.863 281.047 277.274Z" fill="#DDE8FE"/>
<path d="M276.8 273.024C289.034 260.782 289.034 240.934 276.8 228.692C264.566 216.45 244.731 216.45 232.497 228.692C220.263 240.934 220.263 260.782 232.497 273.024C244.731 285.266 264.566 285.266 276.8 273.024Z" fill="#92B5F9"/>
<path d="M244.949 270.987L246.732 266.067C244.546 265.162 242.519 263.953 240.935 262.714C239.614 261.679 239.322 259.797 240.268 258.409L240.382 258.241C241.424 256.713 243.55 256.382 244.99 257.542C246.458 258.724 248.229 259.812 250.254 260.546C253.204 261.617 255.635 261.209 256.386 259.137C257.098 257.17 255.893 255.325 252.531 252.641C247.669 248.769 244.829 244.808 246.65 239.785C248.302 235.227 252.805 232.818 258.736 233.74L260.519 228.821L265.591 230.66L263.939 235.218C265.791 235.985 267.246 236.798 268.415 237.613C269.843 238.608 270.192 240.575 269.212 242.013C268.197 243.502 266.151 243.854 264.702 242.787C263.616 241.987 262.215 241.155 260.389 240.492C257.026 239.272 255.412 240.328 254.888 241.778C254.269 243.488 255.686 245.232 259.485 248.485C264.856 252.894 266.307 256.644 264.619 261.305C262.948 265.915 258.262 268.668 251.935 267.543L250.021 272.826L244.949 270.985V270.987Z" fill="white"/>
<path d="M120.007 284.19C120.007 284.19 61.992 255.566 52.0142 240.636C42.0364 225.706 56.7039 224.86 56.7039 224.86C56.7039 224.86 30.8153 199.664 34.4571 189.058C38.0989 178.451 51.6908 188.588 51.6908 188.588C51.6908 188.588 34.8634 151.099 42.7125 147.372C57.3316 140.429 77.8423 180.325 77.8423 180.325C77.8423 180.325 73.4344 162.994 83.5021 163.556C98.685 164.406 98.0573 203.611 98.0573 203.611C98.0573 203.611 99.7727 188.579 108.922 193.461C125.341 202.221 120.005 284.188 120.005 284.188L120.007 284.19Z" fill="#4951EC"/>
<path d="M112.228 187.399C105.083 183.431 97.9656 195.028 97.9656 195.028C97.9656 195.028 98.6867 164.407 83.5039 163.558C73.4361 162.995 77.844 180.327 77.844 180.327C77.844 180.327 57.3351 140.429 42.7142 147.373L120.074 283.555C120.621 274.044 126.384 195.26 112.228 187.401V187.399Z" fill="#7C9AF2"/>
<path d="M118.507 284.544C118.507 284.544 71.0584 290.442 58.7738 285.186C46.4892 279.931 55.2928 273.441 55.2928 273.441C55.2928 273.441 28.9131 268.253 26.8778 260.155C24.8424 252.058 37.4366 252.852 37.4366 252.852C37.4366 252.852 11.7174 236.312 15.0998 230.795C21.3995 220.52 50.3939 237.066 50.3939 237.066C50.3939 237.066 40.6063 228.047 47.1152 224.306C56.9304 218.662 72.4591 243.372 72.4591 243.372C72.4591 243.372 71.4942 237.281 79.1842 236.606C92.9836 235.395 118.507 284.544 118.507 284.544Z" fill="#4951EC"/>
<path d="M79.4955 232.181C71.8055 232.856 72.4575 243.372 72.4575 243.372C72.4575 243.372 56.6469 214.081 46.8317 219.726C40.3228 223.469 48.0231 235.758 48.0231 235.758C48.0231 235.758 21.3978 220.52 15.0981 230.795L118.651 284.281C115.13 278.128 92.3836 231.05 79.4938 232.181H79.4955Z" fill="#7C9AF2"/>
<path d="M19.7913 286.984C19.7913 287.721 20.3879 288.318 21.1245 288.318H353.665C354.402 288.318 354.998 287.721 354.998 286.984C354.998 286.247 354.402 285.65 353.665 285.65H21.1245C20.3879 285.65 19.7913 286.247 19.7913 286.984Z" fill="#4951EC"/>
<path d="M252.544 54.8307L250.852 59.0511L243.768 57.0767L240.534 62.941L234.99 62.3319L234.682 65.1403L242.095 65.9553L245.161 60.3974L252.531 62.4513L255.077 56.1008L252.544 54.8307Z" fill="#FA7167"/>
<path d="M277.744 167.859L279.485 163.535C277.568 162.66 275.8 161.519 274.429 160.367C273.284 159.405 273.084 157.718 273.969 156.513L274.076 156.368C275.051 155.041 276.955 154.814 278.202 155.89C279.473 156.989 281.014 158.014 282.795 158.732C285.387 159.777 287.566 159.491 288.299 157.671C288.996 155.941 287.979 154.262 285.073 151.767C280.865 148.166 278.46 144.549 280.239 140.135C281.853 136.129 285.937 134.126 291.191 135.133L292.932 130.808L297.39 132.606L295.777 136.612C297.4 137.353 298.671 138.123 299.686 138.886C300.926 139.817 301.177 141.58 300.257 142.829C299.308 144.122 297.475 144.373 296.218 143.376C295.275 142.63 294.056 141.845 292.45 141.198C289.492 140.005 288.024 140.895 287.511 142.17C286.906 143.672 288.113 145.271 291.393 148.285C296.036 152.379 297.212 155.764 295.562 159.862C293.931 163.912 289.672 166.217 284.073 165.018L282.204 169.661L277.746 167.863L277.744 167.859Z" fill="#DDE8FE"/>
<path d="M182.056 285.659H94.3515C90.8567 285.659 88.0242 282.824 88.0242 279.327C88.0242 275.83 90.8567 272.996 94.3515 272.996H182.056C185.551 272.996 188.383 275.83 188.383 279.327C188.383 282.824 185.551 285.659 182.056 285.659Z" fill="#BED1F9"/>
<path d="M195.238 273.126H112.673C109.178 273.126 106.346 270.291 106.346 266.794C106.346 263.297 109.178 260.463 112.673 260.463H195.238C198.733 260.463 201.565 263.297 201.565 266.794C201.565 270.291 198.733 273.126 195.238 273.126Z" fill="#7C9AF2"/>
<path d="M104.497 247.793H183.475C186.887 247.793 189.658 250.565 189.658 253.979V254.271C189.658 257.685 186.887 260.458 183.475 260.458H104.497C101.085 260.458 98.3149 257.685 98.3149 254.271V253.979C98.3149 250.565 101.085 247.793 104.497 247.793Z" fill="#BED1F9"/>
<path d="M104.047 235.166H183.396C186.749 235.166 189.472 237.89 189.472 241.247V241.749C189.472 245.104 186.751 247.829 183.396 247.829H104.047C100.694 247.829 97.9708 245.104 97.9708 241.749V241.247C97.9708 237.892 100.693 235.166 104.047 235.166Z" fill="#7C9AF2"/>
<path d="M186.011 235.91H105.934C102.439 235.91 99.6067 233.076 99.6067 229.579C99.6067 226.082 102.439 223.247 105.934 223.247H186.011C189.505 223.247 192.338 226.082 192.338 229.579C192.338 233.076 189.505 235.91 186.011 235.91Z" fill="#BED1F9"/>
<path d="M182.554 223.408H102.477C98.9824 223.408 96.1499 220.574 96.1499 217.077C96.1499 213.58 98.9824 210.745 102.477 210.745H182.554C186.049 210.745 188.881 213.58 188.881 217.077C188.881 220.574 186.049 223.408 182.554 223.408Z" fill="#7C9AF2"/>
<path d="M109.865 186.286H186.566C189.988 186.286 192.767 189.067 192.767 192.491V192.741C192.767 196.165 189.988 198.946 186.566 198.946H109.865C106.442 198.946 103.663 196.165 103.663 192.741V192.49C103.663 189.065 106.442 186.285 109.865 186.285V186.286Z" fill="#7C9AF2"/>
<path d="M119.753 198.461H193.439C196.799 198.461 199.528 201.192 199.528 204.554V205.032C199.528 208.394 196.799 211.124 193.439 211.124H119.753C116.393 211.124 113.664 208.394 113.664 205.032V204.554C113.664 201.192 116.393 198.461 119.753 198.461Z" fill="#BED1F9"/>
<path d="M109.253 276.587C123.76 262.071 123.76 238.534 109.253 224.018C94.7462 209.501 71.2255 209.501 56.7184 224.018C42.2113 238.534 42.2113 262.071 56.7184 276.587C71.2255 291.104 94.7462 291.104 109.253 276.587Z" fill="#DDE8FE"/>
<path d="M104.12 227.374C116.775 239.053 117.574 258.788 105.901 271.451C94.2286 284.114 74.5082 284.913 61.8536 273.233C49.1989 261.555 48.4 241.82 60.0724 229.157C71.7432 216.494 91.4653 215.696 104.12 227.374Z" fill="#92B5F9"/>
<path d="M103.43 260.046C104.148 260.987 104.098 262.306 103.311 263.19C101.767 264.925 99.2436 267.024 96.0739 268.582C91.436 270.859 86.1099 271.556 81.0813 269.838C77.9392 268.763 74.9441 266.571 72.6909 263.577L69.9501 264.924C69.0197 265.38 67.894 264.996 67.4357 264.065L67.4011 263.994C66.9446 263.062 67.3285 261.937 68.2589 261.478L70.5069 260.374C70.0573 259.636 69.746 259.179 69.5385 258.757C69.1944 258.054 68.8503 257.175 68.5424 256.192L66.2235 257.331C65.2915 257.788 64.1674 257.403 63.7092 256.472C63.2527 255.542 63.6366 254.415 64.5669 253.956L67.3769 252.576C66.5625 248.963 66.6939 245.32 67.7677 242.174C69.5921 236.829 73.6126 232.759 78.4597 230.378C81.2853 228.99 83.6665 228.428 85.6171 228.217C86.9728 228.07 88.2023 229.022 88.3977 230.373L88.4046 230.416C88.6087 231.816 87.6248 233.102 86.2258 233.294C84.6331 233.514 82.7759 234.017 80.668 235.054C77.5761 236.573 74.9684 239.075 73.6818 242.674C72.9659 244.772 72.7739 247.222 73.4916 249.573L89.3021 241.807C90.2342 241.349 91.3599 241.735 91.8165 242.666C92.273 243.597 91.8891 244.723 90.9588 245.182L74.4461 253.294C74.7557 254.102 75.0635 254.91 75.3056 255.401C75.6151 256.035 75.9264 256.666 76.4105 257.476L92.9578 249.347C93.9089 248.88 95.0571 249.272 95.524 250.224C95.9909 251.176 95.5983 252.325 94.6473 252.792L78.8021 260.575C80.2945 262.373 82.1396 263.647 84.0262 264.292C87.7631 265.51 91.0573 265.114 94.5694 263.387C96.7102 262.335 98.4481 261.01 99.7451 259.762C100.812 258.736 102.533 258.867 103.428 260.046H103.43Z" fill="white"/>
<path d="M103.427 150.552C103.919 151.352 103.779 152.388 103.089 153.027C101.737 154.278 99.5842 155.74 96.9609 156.724C93.1254 158.166 88.8663 158.304 85.0291 156.56C82.6306 155.47 80.4362 153.508 78.8868 150.969L76.6197 151.82C75.8485 152.109 74.9908 151.72 74.7002 150.948L74.6778 150.89C74.389 150.118 74.7781 149.26 75.5493 148.969L77.41 148.27C77.1108 147.652 76.9016 147.266 76.7702 146.918C76.5523 146.337 76.3482 145.617 76.1805 144.818L74.2627 145.537C73.4915 145.826 72.6338 145.435 72.3433 144.665C72.0545 143.894 72.4436 143.035 73.2148 142.745L75.5407 141.871C75.1758 138.955 75.5614 136.09 76.6491 133.69C78.5011 129.609 81.989 126.707 85.9992 125.2C88.3371 124.323 90.2601 124.063 91.8164 124.046C92.8989 124.034 93.7947 124.882 93.8465 125.963V125.998C93.9001 127.119 93.0269 128.057 91.9063 128.102C90.6318 128.152 89.1274 128.407 87.3826 129.062C84.825 130.023 82.5735 131.798 81.2801 134.539C80.5538 136.14 80.2131 138.059 80.5987 139.971L93.6788 135.058C94.45 134.769 95.3078 135.159 95.5965 135.93C95.8853 136.7 95.4962 137.56 94.725 137.851L81.0639 142.982C81.2455 143.644 81.427 144.305 81.5809 144.712C81.7763 145.235 81.9735 145.759 82.2934 146.436L95.9839 141.295C96.7707 140.999 97.6474 141.398 97.9431 142.186C98.2388 142.973 97.8394 143.85 97.0526 144.146L83.9448 149.069C84.9841 150.604 86.3433 151.751 87.782 152.405C90.6388 153.655 93.269 153.596 96.1758 152.504C97.9483 151.84 99.4216 150.926 100.54 150.042C101.462 149.315 102.809 149.55 103.427 150.549V150.552Z" fill="#92B5F9"/>
<path d="M224.82 106.808L228.993 104.693L233.1 106.936C233.568 107.192 234.125 106.799 234.042 106.272L233.323 101.646L236.723 98.4312C237.11 98.0644 236.909 97.4138 236.384 97.329L231.765 96.5849L229.759 92.3558C229.531 91.8748 228.849 91.8644 228.605 92.3385L226.472 96.5036L221.832 97.1057C221.304 97.175 221.083 97.8187 221.458 98.1976L224.758 101.516L223.897 106.118C223.798 106.642 224.343 107.05 224.818 106.81L224.82 106.808Z" fill="#7C9AF2"/>
<path d="M141.057 21.9257L136.742 22.3635L135.273 15.4973L128.886 15.3606L126.946 10.4013L124.437 11.3842L127.033 18.0168L133.083 18.1465L134.614 25.2896L141.105 24.6303L141.057 21.9257Z" fill="#FA7167"/>
<path d="M229.681 124.823L234.297 126.346C234.297 126.346 241.613 123.973 242.334 122.482C243.055 120.99 243.258 117.369 244.299 117.27C245.34 117.171 247.351 117.51 247.83 119.988C248.177 121.786 245.545 126.986 245.957 127.54C246.215 127.886 248.841 128.838 250.771 129.5C252.04 129.936 252.957 131.054 253.152 132.404V132.407C253.285 133.319 252.768 134.207 251.916 134.536L250.588 135.048L251.011 136.42C251.326 137.441 250.768 138.538 249.759 138.877L248.732 139.222L249.061 140.057C249.485 141.134 248.888 142.354 247.783 142.675L246.885 142.937L246.922 143.177C247.076 144.176 246.451 145.136 245.483 145.39L244.591 145.624L232.301 141.566C231.149 141.186 230.089 140.57 229.187 139.756L225.106 137.6C224.666 137.368 224.466 136.844 224.63 136.366L228.414 125.463C228.597 124.937 229.161 124.652 229.679 124.823H229.681Z" fill="#FB9390"/>
<path d="M81.7349 109.942C81.6761 109.772 80.2305 107.298 78.3646 104.612C69.6872 92.1015 56.8181 80.0441 41.7269 80.4958L41.7166 80.4041C48.5402 79.6548 55.2237 81.4734 61.0928 84.7145C70.7732 89.9368 80.208 99.8882 85.3681 107.538L81.7349 109.942Z" fill="#7C9AF2"/>
<path d="M180.975 94.3319C180.975 94.3319 181.418 93.4373 181.392 91.3695C181.359 88.812 180.847 84.9515 180.745 84.6106C180.56 83.9929 188.826 81.4008 188.826 81.4008C188.826 81.4008 202.089 80.7224 204.064 79.2395C206.039 77.7583 207.699 77.1475 206.779 78.6841C205.114 81.4613 201.226 85.5364 200.363 86.0918C199.5 86.6473 189.198 89.2394 189.013 89.2394C188.828 89.2394 188.89 95.7214 188.89 95.7214L180.978 94.3319H180.975Z" fill="#FB9390"/>
<path d="M189.581 91.5702C189.581 91.5702 180.994 90.1098 180.837 90.9681C177.366 109.982 176.778 116.265 176.394 116.462C175.087 117.135 156.395 100.719 153.307 99.6442C151.83 99.1303 150.222 99.2168 148.681 99.2618C145.007 99.3708 146.246 99.2826 144.31 99.3777V99.3812C144.208 99.3881 144.147 99.3916 144.147 99.3916L144.166 102.851C148.306 106.578 157.784 163.033 158.581 162.995C159.473 162.954 178.205 167.671 177.874 166.091C177.821 165.835 165.175 155.479 161.588 140.535C160.385 135.519 159.79 130.116 159.138 125.389C163.3 127.477 179.555 135.482 182.132 134.425C190.145 131.135 189.581 91.5685 189.581 91.5685V91.5702Z" fill="#4951EC"/>
<path d="M221.841 191.808C221.841 191.808 239.268 205.469 239.851 207.89C240.688 211.379 256.647 206.793 252.799 206.082C251.914 205.919 249.08 205.199 248.848 205.075C247.601 204.409 232.095 185.708 232.095 185.708L221.844 191.806L221.841 191.808Z" fill="#FB9390"/>
<path d="M260.282 206.084L249.154 205.177C249.154 205.177 245.974 207.811 239.861 207.935C239.861 207.935 238.884 210.73 239.349 213.995C239.429 214.559 239.524 216.262 240.091 216.222C242.147 216.082 247.624 214.718 253.865 213.469C253.865 213.469 262.252 211.692 267.097 208.792C271.941 205.892 260.282 206.084 260.282 206.084Z" fill="#0B0754"/>
<path d="M143.751 157.541C143.751 157.541 156.513 159.687 170.629 156.384C186.962 152.559 205.022 149.026 210.313 152.104C214.573 154.582 241.17 194.798 241.17 194.798L230.898 202.298L201.612 169.483C201.612 169.483 164.248 183.277 155.856 181.749C136.744 178.268 136.473 162.994 143.751 157.541Z" fill="#E8605D"/>
<path d="M157.703 149.426L170.473 164.612L146.784 171.834L143.751 157.541L157.703 149.426Z" fill="#E8605D"/>
<path d="M183.655 218.79C183.655 218.79 182.879 239.881 182.398 243.455C181.919 247.011 191.344 257.724 190.138 253.996C189.862 253.14 189.147 250.302 189.146 250.037C189.141 248.623 192.641 224.561 192.641 224.561L183.654 218.788L183.655 218.79Z" fill="#FB9390"/>
<path d="M193.694 260.586L189.204 250.357C189.204 250.357 185.378 248.809 182.364 243.484C182.364 243.484 179.443 243.951 176.792 245.912C176.334 246.249 173.218 248.532 173.434 249.058C174.233 250.994 178.478 255.144 183.119 259.675C183.119 259.675 189.697 264.986 194.55 267.872C199.4 270.76 193.694 260.586 193.694 260.586Z" fill="#0B0754"/>
<path d="M204.341 177.205C199.877 171.251 163.859 165.594 163.859 165.594L153.815 146.278L131.606 159.983C131.606 159.983 133.827 177.666 135.492 182.391C137.712 188.688 152.638 189.008 161.754 188.915C170.141 188.828 185.462 190.54 185.462 190.54L180.28 236.282C180.28 236.282 190.465 238.601 193.327 238.227C193.65 238.184 209.891 184.615 204.339 177.207L204.341 177.205Z" fill="#FA7167"/>
<path d="M144.27 99.4244L131.74 100.111C131.74 100.111 131.453 100.212 131.366 100.229C130.346 100.418 131.273 136.956 132.182 150.602C133.094 164.248 134.939 169.983 134.939 169.983C134.939 169.983 151.932 166.963 157.148 164.939C159.313 164.098 164.551 157.545 164.551 157.545C164.551 157.545 159.198 150.344 156.503 138.651C154.424 129.632 151.86 113.643 150.391 110.305C147.021 102.641 144.268 99.4244 144.268 99.4244H144.27Z" fill="#DDE8FE"/>
<path d="M132.098 89.056L131.741 100.127C131.741 100.127 139.852 114.112 144.016 112.164C147.51 110.528 144.408 99.8899 144.408 99.8899C144.408 99.8899 143.803 97.4501 142.964 94.6486C142.378 92.6898 141.89 90.5701 141.927 89.0127C142.015 85.2301 132.098 89.056 132.098 89.056Z" fill="#EF7F7F"/>
<path d="M141.787 63.8062C141.787 63.8062 145.92 70.0408 146.229 75.2873C146.537 80.5338 145.427 84.114 145.427 84.114L132.163 68.2498L141.787 63.8045V63.8062Z" fill="#0B0754"/>
<path d="M147.602 74.2145C147.789 76.0521 147.076 77.6302 146.008 77.7375C144.941 77.8465 143.924 76.4449 143.737 74.609C143.55 72.7713 144.265 71.1949 145.332 71.0842C146.399 70.9752 147.415 72.3768 147.602 74.2145Z" fill="#EF7F7F"/>
<path d="M127.871 70.7935C127.567 70.7295 127.596 86.0019 132.022 89.5959C136.445 93.1899 144.145 93.5048 146.393 89.8848C148.88 85.8807 146.514 69.7864 139.935 66.3689C133.355 62.9514 127.871 70.7935 127.871 70.7935Z" fill="#FB9390"/>
<path d="M126.751 61.3231C123.374 64.2855 121.738 66.4502 119.453 71.7193C116.643 78.1961 122.218 84.9083 126.893 87.5748C131.567 90.2413 131.963 93.5152 131.963 93.5152L132.148 91.4785C132.348 89.8969 131.869 88.9937 131.423 88.0368C131.025 87.1854 129.748 84.2697 129.248 83.4997C127.932 81.47 127.672 81.0305 128.323 79.1011C128.822 77.6164 128.243 74.3425 129.016 71.894L135.309 70.5357C135.309 70.5357 139.246 69.5892 141.235 67.2929C146.945 60.7019 135.656 53.353 126.749 61.3214L126.751 61.3231Z" fill="#0B0754"/>
<path d="M129.82 80.7709C130.595 82.4476 130.434 84.1711 129.46 84.6227C128.487 85.0744 127.069 84.0811 126.294 82.4044C125.519 80.7276 125.68 79.0042 126.654 78.5526C127.627 78.1009 129.045 79.0942 129.82 80.7709Z" fill="#FB9390"/>
<path d="M45.0748 86.2441L44.0545 79.2084L49.2682 74.3789C49.8613 73.8286 49.5674 72.8354 48.7702 72.6987L41.7667 71.496L38.7872 65.0417C38.4483 64.3063 37.4142 64.2803 37.0372 64.9967L33.7291 71.2884L26.6738 72.1294C25.8697 72.2245 25.5256 73.2022 26.0893 73.7819L31.0488 78.8727L29.6689 85.8461C29.5115 86.6404 30.3329 87.2702 31.0592 86.912L37.4315 83.7662L43.6326 87.2356C44.3398 87.6301 45.1906 87.0435 45.0748 86.2424V86.2441Z" fill="#7C9AF2"/>
<path d="M86.9434 38.6395C87.6593 41.5794 88.9476 46.2255 88.9476 46.2255C88.8456 47.5025 88.4686 52.8183 88.0207 59.3349L97.5904 55.5021C97.5904 55.5021 97.4763 44.8862 97.9034 44.2356C98.2648 43.6853 98.8718 44.3723 101.805 40.1709C102.652 38.9579 102.809 36.7914 102.809 36.7914C102.809 36.7914 102.984 34.1249 102.386 33.8775C101.787 33.6283 101.101 34.028 100.885 34.4883C100.668 34.9486 100.724 36.0232 100.508 36.4834C100.292 36.9437 98.9064 37.4992 98.3236 37.4715C97.7409 37.4438 98.3963 29.5844 98.3963 29.5844C98.3963 29.5844 98.7214 27.3557 98.8874 26.6272C99.0274 26.006 99.5929 24.1821 99.5929 24.1821C99.5929 24.1821 100.257 21.5381 99.4355 21.3356C98.9514 21.2163 97.7184 23.3654 96.8745 25.646C95.9649 28.1015 95.4479 30.7074 95.1885 30.6711C94.5781 30.5897 94.9014 26.2794 94.9014 26.2794C94.9014 26.2794 95.5101 24.305 95.4946 23.374C96.0704 22.2337 96.4508 20.1157 95.4392 19.941C95.2525 19.9081 93.9175 22.5988 93.9175 22.5988C93.9175 22.5988 93.3935 24.4919 93.0875 25.3778C92.5479 26.9386 92.4667 29.4044 92.1848 30.4911C91.9513 31.3944 91.7386 31.0241 91.6435 31.0621C91.5692 31.0916 91.6989 29.844 91.8493 28.1291C91.9237 27.2657 91.8251 26.2707 92.0672 25.2861C92.2903 24.3759 92.4182 23.073 92.477 22.2856C92.6413 20.0569 91.2389 20.2853 90.7547 22.322C90.5697 23.0989 90.376 23.9451 90.1823 24.8033C89.4284 28.1447 89.4508 31.3632 89.0894 31.3892C88.6225 31.4238 88.9303 25.563 88.9303 25.563C88.9303 25.563 88.2127 22.3185 87.5002 25.3294C86.6737 28.823 86.7601 31.6712 86.7705 31.7976C86.8466 32.6506 86.2292 35.6996 86.9451 38.6395H86.9434Z" fill="#FB9390"/>
<path d="M131.724 100.13C131.724 100.13 119.318 99.5456 116.114 98.0955C114.17 97.2165 98.2094 84.3459 98.2094 84.3459L98.3876 49.887L87.163 49.0322C87.163 49.0322 81.3423 87.1197 83.3586 91.2899C85.4406 95.5951 108.805 113.319 113.477 121.011C116.169 125.443 121.783 185.705 122.632 186.248C128.677 189.396 147.346 192.54 146.907 190.631C134.754 137.853 131.724 100.132 131.724 100.132V100.13Z" fill="#4951EC"/>
<path d="M187.192 85.1557C207.81 85.1557 224.524 68.4303 224.524 47.7984C224.524 27.1666 207.81 10.4411 187.192 10.4411C166.573 10.4411 149.859 27.1666 149.859 47.7984C149.859 68.4303 166.573 85.1557 187.192 85.1557Z" fill="#DDE8FE"/>
<path d="M190.613 78.9523C207.811 77.0615 220.221 61.5778 218.332 44.3685C216.442 27.1593 200.969 14.7412 183.771 16.632C166.573 18.5228 154.163 34.0065 156.052 51.2157C157.942 68.425 173.415 80.8431 190.613 78.9523Z" fill="#92B5F9"/>
<path d="M177.492 67.9262L179.275 63.0068C177.089 62.1018 175.063 60.8922 173.479 59.6533C172.158 58.6185 171.865 56.7358 172.811 55.3481L172.925 55.1802C173.968 53.6523 176.093 53.3218 177.534 54.4829C179.002 55.6647 180.771 56.7532 182.798 57.4868C185.748 58.5579 188.179 58.1496 188.93 56.0783C189.642 54.1109 188.437 52.2663 185.077 49.5824C180.214 45.7098 177.375 41.749 179.196 36.7257C180.847 32.1678 185.35 29.7592 191.281 30.6814L193.064 25.762L198.136 27.6014L196.485 32.1592C198.337 32.9258 199.791 33.739 200.96 34.554C202.388 35.549 202.738 37.5165 201.757 38.9544C200.742 40.4425 198.696 40.7955 197.247 39.7279C196.161 38.9267 194.761 38.0961 192.935 37.4334C189.571 36.2135 187.958 37.269 187.434 38.7191C186.815 40.4287 188.233 42.1729 192.03 45.4261C197.401 49.8351 198.852 53.5848 197.164 58.2465C195.494 62.8562 190.808 65.6093 184.48 64.4845L182.566 69.7674L177.494 67.9262H177.492Z" fill="white"/>
<path d="M186.235 85.3512C186.235 85.3512 189.69 83.87 190.616 83.5603C191.541 83.2523 194.503 82.6968 194.503 82.6968C194.503 82.6968 199.099 77.9746 200.272 77.8518C201.444 77.7289 197.588 83.0066 197.588 83.0066L195.983 84.5501C195.983 84.5501 198.574 82.3283 199.068 82.0185C199.561 81.7105 203.448 76.092 204.436 76.4623C205.423 76.8326 202.77 80.783 201.475 82.882C200.18 84.9809 194.257 86.277 194.257 86.277L186.239 85.3512H186.235Z" fill="#FB9390"/>
<path d="M227.521 100.601C227.514 101.527 206.535 101.783 202.188 120.397L199.391 119.478C205.622 100.554 226.394 101.316 227.411 100.62C227.424 100.61 227.43 100.599 227.43 100.601H227.521Z" fill="#7C9AF2"/>
<path d="M315.798 220.358L316.519 217.874C320.334 217.153 323.618 214.556 324.698 210.832C325.044 209.64 325.283 208.633 325.459 207.285L320.349 205.798L321.257 202.671L325.871 204.012C326.056 202.452 326.32 200.429 326.882 198.492C328.584 192.633 333.713 189.981 339.221 191.583C340.793 192.04 342.005 192.632 342.906 193.241C343.724 193.793 343.938 194.905 343.4 195.732C342.859 196.563 341.757 196.802 340.912 196.281C340.21 195.848 339.317 195.433 338.197 195.108C334.327 193.983 331.961 196.201 330.937 199.726C330.317 201.862 330.154 203.537 329.99 205.212L337.135 207.29L336.226 210.417L329.478 208.454C329.079 210.384 328.631 212.299 327.664 213.957C326.498 215.933 324.788 217.374 322.684 218.323L322.654 218.421L335.693 222.214C336.656 222.495 337.211 223.503 336.931 224.469L336.893 224.601C336.613 225.564 335.605 226.12 334.64 225.839L315.796 220.359L315.798 220.358Z" fill="#7C9AF2"/>
</svg>
